<?xml version="1.0" encoding="UTF-8" standalone="no"?>
<!DOCTYPE svg  PUBLIC '-//W3C//DTD SVG 1.1//EN'  'http://www.w3.org/Graphics/SVG/1.1/DTD/svg11.dtd'>
<svg xmlns="http://www.w3.org/2000/svg">
<defs>
<font id="Whitney-Semibold" horiz-adv-x="500">
<font-face underline-position="-123" font-weight="500" descent="-200" panose-1="2 0 6 3 4 0 0 2 0 4" units-per-em="1000" unicode-range="U+0020-25CA" bbox="-37 -200 993 953" x-height="483" underline-thickness="20" font-family="Whitney" ascent="800" cap-height="690"/>
<missing-glyph horiz-adv-x="1000"/>
<glyph glyph-name=".notdef" horiz-adv-x="1000"/>
<glyph glyph-name=".null" horiz-adv-x="0"/>
<glyph glyph-name="nonmarkingreturn" horiz-adv-x="1000"/>
<glyph glyph-name="space" horiz-adv-x="214" unicode=" "/>
<glyph glyph-name="exclam" horiz-adv-x="284" unicode="!" d="M207 0h-131v146h131v-146zM216 690l-36 -452l-75 -17l-37 469h148z"/>
<glyph glyph-name="quotedbl" horiz-adv-x="465" unicode='&quot;' d="M196 676l-34 -254l-75 17l-32 237h141zM410 676l-35 -254l-74 17l-33 237h142z"/>
<glyph glyph-name="numbersign" horiz-adv-x="667" unicode="#" d="M269 420l-26 -164h155l25 164h-154zM228 157l-26 -165l-80 18l24 147h-107v101h122l25 160h-112l-17 101h145l26 159h83l-25 -159h153l25 165l80 -18l-23 -147h106v-101h-122l-25 -160h114l16 -101h-146l-25 -159h-83l25 159h-153z"/>
<glyph glyph-name="dollar" horiz-adv-x="538" unicode="$" d="M277 586h-13q-52 0 -78 -21t-26 -58q0 -16 4 -29q4 -14 16 -24q10 -10 28 -20t43 -18zM265 91h2q60 -1 90 23t30 69q-1 33 -19 57t-74 43zM359 673q62 -12 111 -37l-17 -103q-25 15 -53 27t-60 18l-28 -182q48 -16 82 -34t57 -42t34 -54t11 -72q0 -98 -64 -148t-173 -50 h-5l-18 -118l-69 15l3 17q2 18 5 38t5 37l3 17q-41 6 -79 18t-69 28l16 103q38 -21 75 -35t77 -20l31 207q-46 15 -80 32t-56 39t-34 51t-12 69q0 90 60 138t165 48h10l12 75l70 -16z"/>
<glyph glyph-name="percent" horiz-adv-x="897" unicode="%" d="M764 191q0 55 -18 90t-56 35t-56 -34t-18 -91q0 -55 18 -91t56 -35q38 0 56 35t18 91zM855 191q0 -47 -13 -84t-35 -63q-23 -26 -53 -38q-30 -14 -64 -14q-35 0 -65 14t-52 38q-22 26 -35 63t-13 84q0 48 13 85q13 36 35 62t52 39t65 13q34 0 64 -13t53 -39 q22 -26 35 -62q13 -37 13 -85zM280 485q0 56 -18 91t-56 35t-56 -35t-18 -91q0 -53 18 -89t56 -36t56 35t18 90zM704 664l-432 -671l-79 19l431 671zM371 485q0 -47 -13 -84t-35 -63q-23 -26 -53 -38q-30 -14 -64 -14q-35 0 -65 14t-52 38q-22 26 -35 63t-13 84q0 48 13 85 q13 36 35 62t52 39t65 13t65 -13q31 -13 53 -39t34 -62q12 -37 13 -85z"/>
<glyph glyph-name="ampersand" horiz-adv-x="672" unicode="&amp;" d="M399 149l-156 163q-43 -24 -65 -55t-22 -67q0 -46 32 -74t84 -28q73 0 127 61zM678 16l-133 -22l-81 83q-41 -43 -92 -66t-113 -23q-106 0 -167 48t-61 139q1 73 41 123t106 85q-32 35 -48 69t-15 81q0 37 13 68t38 53q26 22 62 36q36 13 82 13q54 0 98 -12t80 -31 l-19 -115q-40 24 -78 38t-74 14q-37 1 -57 -19t-20 -49q0 -27 13 -49t42 -52l166 -176q26 65 38 155l105 -23q-20 -126 -69 -214z"/>
<glyph glyph-name="quotesingle" horiz-adv-x="253" unicode="&apos;" d="M198 676l-34 -254l-77 17l-32 237h143z"/>
<glyph glyph-name="parenleft" horiz-adv-x="407" unicode="(" d="M376 -71l-101 -23q-52 42 -93 86t-69 93t-43 105t-15 121q1 139 71 241t204 174l14 -93q-80 -63 -119 -139t-39 -183q0 -55 10 -103t34 -94q23 -46 59 -90q36 -46 87 -95z"/>
<glyph glyph-name="parenright" horiz-adv-x="407" unicode=")" d="M351 316q0 -140 -70 -242t-204 -173l-15 93q40 32 70 66t49 74q20 39 30 84t10 98q-1 55 -11 103t-33 94q-23 45 -59 91t-87 95l101 23q52 -43 92 -87t69 -93q28 -48 43 -104t15 -122z"/>
<glyph glyph-name="asterisk" horiz-adv-x="419" unicode="*" d="M383 557l-108 -60l53 -113l-29 -19l-90 84l-90 -84l-28 19l52 113l-107 60l10 32l123 -13l22 119h36l22 -119l123 13z"/>
<glyph glyph-name="plus" horiz-adv-x="572" unicode="+" d="M518 290h-182v-188h-100v188h-182v96h182v188h100v-188h182v-96z"/>
<glyph glyph-name="comma" horiz-adv-x="243" unicode="," d="M208 146l-114 -287l-69 17l46 270h137z"/>
<glyph glyph-name="hyphen" horiz-adv-x="354" unicode="-" d="M307 230h-260v115h260v-115z"/>
<glyph glyph-name="period" horiz-adv-x="243" unicode="." d="M187 0h-131v146h131v-146z"/>
<glyph glyph-name="slash" horiz-adv-x="533" unicode="/" d="M517 677l-451 -804l-103 22l451 804z"/>
<glyph glyph-name="zero" horiz-adv-x="627" unicode="0" d="M454 338q0 120 -36 184t-104 64q-70 0 -106 -64t-36 -184t36 -184t106 -64q68 0 104 64t36 184zM583 338q1 -84 -19 -150t-55 -110q-35 -45 -85 -68t-110 -23t-110 23t-86 68q-36 44 -54 110q-20 66 -20 150t20 150t54 110q36 45 86 68t110 23t110 -23t85 -68 q35 -44 55 -110t19 -150z"/>
<glyph glyph-name="one" horiz-adv-x="382" unicode="1" d="M300 0h-128v552l-138 -53l-14 101l167 77h113v-677z"/>
<glyph glyph-name="two" horiz-adv-x="543" unicode="2" d="M501 0h-459v94l242 247q38 41 58 73t20 69q0 47 -27 71t-78 23q-50 0 -95 -21t-87 -54l-16 114q41 32 93 52t119 20q103 0 161 -52t57 -140q1 -33 -7 -61q-8 -29 -24 -55t-38 -53q-24 -27 -55 -58l-164 -163h284z"/>
<glyph glyph-name="three" horiz-adv-x="529" unicode="3" d="M488 187q0 -47 -18 -84t-51 -63t-79 -40t-100 -13q-60 1 -114 15t-94 38l18 110q42 -26 88 -40t97 -15q57 1 91 25t34 72q0 54 -38 82t-128 28h-36l-16 100h57q77 0 113 26t36 70q0 38 -28 60t-84 23q-51 0 -95 -16t-82 -44l-16 106q39 28 90 45t117 17q57 0 99 -14 q43 -14 71 -38t42 -56t14 -69q0 -66 -34 -102t-88 -55q62 -19 98 -59t36 -109z"/>
<glyph glyph-name="four" horiz-adv-x="599" unicode="4" d="M356 237v310l-208 -310h208zM577 144h-101v-144h-120v144h-326v85l300 448h146v-440h101v-93z"/>
<glyph glyph-name="five" horiz-adv-x="541" unicode="5" d="M502 219q0 -57 -20 -101t-56 -72q-36 -29 -84 -44t-105 -15q-60 -1 -109 13t-90 36l19 112q38 -23 84 -38t97 -15q30 0 56 7q26 8 45 22t30 36t11 53q0 51 -32 79t-92 29q-34 1 -59 -5t-46 -15l-86 19l24 356h377l17 -108h-293l-12 -158q20 6 44 10t58 4q50 0 91 -14 t70 -40t45 -65q16 -38 16 -86z"/>
<glyph glyph-name="six" horiz-adv-x="570" unicode="6" d="M161 274q1 -91 38 -139t97 -48q54 1 86 33t32 89q0 55 -28 85t-90 29q-37 0 -70 -13t-65 -36zM168 370q38 24 78 38t90 14q44 0 80 -14t64 -40q26 -26 41 -64t15 -88q0 -51 -18 -93q-18 -43 -51 -73t-77 -46t-96 -17q-55 1 -101 19q-45 18 -79 54t-52 90t-19 123 q1 89 29 159t78 120q50 52 120 86t151 52l16 -107q-49 -11 -93 -29t-80 -44t-60 -60q-24 -35 -36 -80z"/>
<glyph glyph-name="seven" horiz-adv-x="535" unicode="7" d="M494 577l-261 -584l-123 24l248 549h-310l-16 110h462v-99z"/>
<glyph glyph-name="eight" horiz-adv-x="578" unicode="8" d="M171 354q-49 26 -78 62t-29 94q0 40 17 74t47 56q30 23 72 36t93 13q52 0 93 -13t70 -36q28 -23 44 -54t16 -68q0 -53 -30 -93t-80 -69q32 -14 56 -32t42 -39t26 -47t8 -60q0 -41 -18 -76q-18 -34 -49 -60q-32 -26 -78 -40t-104 -15q-61 0 -107 15q-46 14 -78 40t-48 60 t-16 73q0 57 36 102t95 77zM260 314q-46 -24 -72 -56t-26 -74q0 -48 36 -75t93 -27q54 0 89 26t35 71q0 23 -8 41t-26 32q-18 16 -48 30t-73 32zM316 396q38 23 60 52t21 64q-1 39 -29 62t-79 23q-52 -1 -79 -25t-27 -60q0 -19 7 -34q7 -14 23 -28q15 -14 41 -26t62 -28z "/>
<glyph glyph-name="nine" horiz-adv-x="570" unicode="9" d="M409 392v4q1 94 -37 144t-98 49q-54 0 -86 -33t-32 -93q0 -59 29 -89t89 -30q37 0 70 12t65 36zM399 296q-36 -22 -76 -36t-86 -14q-91 0 -147 54t-56 156q0 52 18 95t50 74t77 47q44 16 96 17q55 -1 101 -19t80 -54t52 -90t19 -123q-1 -89 -29 -159t-80 -122t-122 -86 q-71 -34 -156 -50l-16 107q52 11 96 27t80 41t60 58q26 33 39 77z"/>
<glyph glyph-name="colon" horiz-adv-x="252" unicode=":" d="M191 0h-131v145h131v-145zM191 339h-131v144h131v-144z"/>
<glyph glyph-name="semicolon" horiz-adv-x="252" unicode=";" d="M205 145l-114 -286l-70 17l47 269h137zM198 339h-131v144h131v-144z"/>
<glyph glyph-name="less" horiz-adv-x="572" unicode="&lt;" d="M504 73l-447 222v86l447 222v-108l-326 -156l326 -157v-109z"/>
<glyph glyph-name="equal" horiz-adv-x="590" unicode="=" d="M518 172h-445v100h445v-100zM518 404h-445v100h445v-100z"/>
<glyph glyph-name="greater" horiz-adv-x="572" unicode="&gt;" d="M515 295l-447 -222v108l326 156l-326 157v109l447 -222v-86z"/>
<glyph glyph-name="question" horiz-adv-x="512" unicode="?" d="M271 303l-6 -69l-73 -16l-12 159l31 12q72 27 103 53t31 68q1 38 -27 60t-73 21q-54 1 -102 -21t-91 -55l-17 116q45 32 99 52t124 20q98 -1 156 -49t58 -135q0 -43 -14 -75t-38 -58q-26 -26 -64 -45q-38 -20 -85 -38zM289 0h-132v146h132v-146z"/>
<glyph glyph-name="at" horiz-adv-x="835" unicode="@" d="M472 130q-36 -42 -68 -62t-69 -20q-21 0 -41 8t-34 24q-15 16 -24 40t-9 58q0 61 18 111t49 86q32 35 72 55t84 20q38 0 76 -8t72 -20l-32 -209q-2 -11 -3 -25t-1 -27q0 -27 16 -43t47 -16q51 0 86 52t35 153q0 73 -22 128t-60 91t-92 54q-53 18 -115 18q-74 0 -141 -31 q-68 -31 -118 -86t-80 -130t-29 -163q0 -76 22 -132t61 -92q38 -36 92 -52q54 -17 117 -17t117 13t98 36l6 -36q-42 -20 -99 -34t-126 -14q-77 0 -138 21t-105 63t-66 102q-23 61 -23 141q1 89 33 171t88 143t132 97t163 36q75 0 135 -22t103 -65t67 -103t23 -136 q0 -59 -13 -107t-37 -82q-24 -35 -59 -53t-79 -18q-47 0 -82 22t-47 60zM467 203l26 162q-12 4 -23 6t-26 2q-23 0 -44 -13q-22 -13 -38 -37t-26 -57t-10 -73q0 -33 12 -47t31 -15q22 1 44 17t54 55z"/>
<glyph glyph-name="A" horiz-adv-x="695" unicode="A" d="M439 283l-94 266l-94 -266h188zM674 17l-132 -24l-66 182h-261l-63 -175h-131l259 693h141z"/>
<glyph glyph-name="B" horiz-adv-x="566" unicode="B" d="M404 205q0 53 -34 80t-101 27h-69v-211h71q63 0 98 26t35 78zM380 500q0 42 -26 66t-87 23h-67v-183h61q59 0 89 24t30 70zM531 201q0 -51 -18 -89q-17 -38 -51 -62t-82 -38q-48 -12 -109 -12h-198v690h201q117 0 173 -48t56 -131q1 -53 -27 -89t-73 -55q58 -17 93 -57 t35 -109z"/>
<glyph glyph-name="C" horiz-adv-x="625" unicode="C" d="M576 47q-42 -27 -93 -43t-110 -16q-75 0 -135 26t-104 72q-42 46 -65 112t-23 146t24 146t66 113q43 47 103 73t133 26q60 0 108 -14t85 -36l-19 -125q-34 25 -76 43t-92 18q-92 0 -144 -65t-53 -178q0 -115 55 -179t147 -63q47 0 91 16t84 42z"/>
<glyph glyph-name="D" horiz-adv-x="704" unicode="D" d="M521 345q-1 60 -17 104q-16 43 -46 73t-72 44t-95 15h-86v-472h84q109 0 171 57t61 179zM656 346q0 -76 -24 -140t-70 -110t-114 -71t-156 -25h-219v690h219q90 0 158 -25t114 -71t69 -108q23 -64 23 -140z"/>
<glyph glyph-name="E" horiz-adv-x="518" unicode="E" d="M484 0h-411v690h401v-112h-270v-162h208l18 -114h-226v-190h280v-112z"/>
<glyph glyph-name="F" horiz-adv-x="491" unicode="F" d="M459 575h-254v-175h194l19 -116h-213v-284h-132v690h386v-115z"/>
<glyph glyph-name="G" horiz-adv-x="689" unicode="G" d="M627 57q-49 -32 -111 -51t-131 -19q-81 0 -145 26t-107 73q-43 46 -65 112t-22 146t23 146t67 114t106 73q62 26 141 26q66 0 117 -15t93 -40l-19 -123q-39 29 -86 47t-104 18q-51 0 -89 -18q-37 -18 -63 -50t-38 -77t-13 -100q0 -56 13 -101q14 -46 40 -78t65 -50 t91 -17q36 0 63 7t53 21v153h-140l-16 106h277v-329z"/>
<glyph glyph-name="H" horiz-adv-x="705" unicode="H" d="M632 0h-133v300h-293v-300h-133v690h133v-272h293v272h133v-690z"/>
<glyph glyph-name="I" horiz-adv-x="288" unicode="I" d="M211 0h-133v690h133v-690z"/>
<glyph glyph-name="J" horiz-adv-x="397" unicode="J" d="M330 190q0 -53 -16 -90t-44 -61t-67 -35t-85 -11q-22 1 -44 3t-35 4l-18 115q17 -5 35 -7t44 -3q46 0 72 23t26 79v483h132v-500z"/>
<glyph glyph-name="K" horiz-adv-x="629" unicode="K" d="M625 18l-141 -25l-278 343v-336h-133v690h133v-303l254 303h152l-274 -319z"/>
<glyph glyph-name="L" horiz-adv-x="477" unicode="L" d="M454 0h-381v690h133v-573h230z"/>
<glyph glyph-name="M" horiz-adv-x="895" unicode="M" d="M842 0h-132l-37 504l-174 -506h-116l-175 506l-35 -504h-119l53 690h168l175 -521l174 521h165z"/>
<glyph glyph-name="N" horiz-adv-x="704" unicode="N" d="M631 0h-110l-325 475v-475h-123v690h125l310 -452v452h123v-690z"/>
<glyph glyph-name="O" horiz-adv-x="740" unicode="O" d="M560 345q0 57 -13 103t-37 78t-60 50t-80 17q-44 1 -79 -17t-59 -50t-38 -78q-13 -46 -13 -103t13 -103q14 -46 38 -78t59 -50t79 -17q45 -1 80 17q36 18 60 50t37 78t13 103zM694 346q0 -80 -23 -146t-65 -114t-103 -73q-60 -26 -134 -26q-73 0 -133 26t-102 73 q-42 46 -65 112t-23 146t23 146t65 114t103 73q60 26 134 26t134 -26t102 -73q43 -46 65 -112t22 -146z"/>
<glyph glyph-name="P" horiz-adv-x="555" unicode="P" d="M398 475q0 109 -130 109h-63v-223h58q63 0 99 27t36 87zM528 478q0 -56 -19 -98t-53 -70t-84 -42q-49 -14 -108 -14h-59v-254h-132v690h202q119 0 186 -54t67 -158z"/>
<glyph glyph-name="Q" horiz-adv-x="740" unicode="Q" d="M560 344q0 56 -13 102t-37 78t-60 51q-36 18 -80 18q-45 0 -80 -18q-35 -19 -59 -51t-37 -78t-13 -102t13 -102q14 -46 38 -80t59 -52t79 -18q45 0 80 18q36 18 60 52t37 80t13 102zM694 351q0 -121 -51 -202t-136 -117l179 -61l-25 -114l-380 139q-117 42 -176 128 t-59 220q0 80 23 146t65 114t103 73q60 26 134 26q73 0 133 -25q60 -26 102 -72t65 -111t23 -144z"/>
<glyph glyph-name="R" horiz-adv-x="593" unicode="R" d="M396 289l184 -271l-135 -25l-180 271h-60v-264h-132v690h214q115 0 181 -53t66 -154q0 -75 -37 -123t-101 -71zM404 476q0 52 -32 80t-95 28h-73v-219h67q61 1 97 29t36 82z"/>
<glyph glyph-name="S" horiz-adv-x="533" unicode="S" d="M493 197q1 -51 -17 -89t-49 -64t-73 -39t-93 -13q-63 0 -117 13t-100 35l20 121q44 -25 96 -43t103 -18q47 0 75 21t28 63q0 20 -6 34t-18 26q-14 12 -38 26q-24 13 -62 29q-50 21 -86 41t-58 42q-22 24 -34 54q-10 30 -10 69q0 45 16 81t47 61q30 25 71 38t89 13 q59 0 101 -11t81 -31l-20 -120q-38 26 -80 40t-83 14q-50 0 -72 -21t-23 -53q0 -18 5 -30t18 -24t36 -24t59 -27q53 -22 90 -43q37 -22 60 -46t33 -54t11 -71z"/>
<glyph glyph-name="T" horiz-adv-x="605" unicode="T" d="M584 575h-217v-575h-133v575h-205v115h536z"/>
<glyph glyph-name="U" horiz-adv-x="688" unicode="U" d="M623 270q-1 -70 -21 -122t-57 -88t-89 -54t-114 -18q-63 0 -114 18t-87 54q-35 35 -55 87t-20 120v423h132v-416q0 -79 36 -125t109 -46q75 0 111 44t36 124v419h133v-420z"/>
<glyph glyph-name="V" horiz-adv-x="685" unicode="V" d="M664 690l-259 -693h-130l-254 676l140 24l184 -529l181 522h138z"/>
<glyph glyph-name="W" horiz-adv-x="1003" unicode="W" d="M977 690l-198 -690h-126l-153 502l-153 -502h-125l-193 672l138 25l130 -494l144 487h133l144 -487l126 487h133z"/>
<glyph glyph-name="X" horiz-adv-x="649" unicode="X" d="M247 355l-206 317l139 25l148 -240l141 233h140l-209 -325l227 -347l-139 -25l-168 269l-17 -27q-17 -27 -40 -65t-48 -78t-41 -64q-16 -26 -16 -28h-139z"/>
<glyph glyph-name="Y" horiz-adv-x="654" unicode="Y" d="M640 690l-250 -426v-264h-133v263l-241 412l138 22l175 -312l169 305h142z"/>
<glyph glyph-name="Z" horiz-adv-x="609" unicode="Z" d="M571 0h-527v97l357 484h-325l-17 109h503v-97l-357 -484h349z"/>
<glyph glyph-name="bracketleft" horiz-adv-x="414" unicode="[" d="M373 -104h-294v794h289v-80h-173v-633h165z"/>
<glyph glyph-name="backslash" horiz-adv-x="533" unicode="\" d="M570 -106l-103 -22l-451 804l102 22z"/>
<glyph glyph-name="bracketright" horiz-adv-x="414" unicode="]" d="M334 -104h-289v81h174v633h-166l-13 80h294v-794z"/>
<glyph glyph-name="asciicircum" horiz-adv-x="454" unicode="^" d="M378 557l-69 -14l-82 69l-79 -65h-76l100 144h112z"/>
<glyph glyph-name="underscore" horiz-adv-x="454" unicode="_" d="M456 -104h-458v70h458v-70z"/>
<glyph glyph-name="grave" horiz-adv-x="454" unicode="`" d="M329 547h-79l-141 124l147 27z"/>
<glyph glyph-name="a" horiz-adv-x="503" unicode="a" d="M325 133v108q-51 -6 -85 -17q-34 -10 -53 -24t-27 -30t-7 -33q-1 -26 15 -41t44 -15q32 -1 60 13t53 39zM445 0h-103l-10 63q-29 -31 -68 -52t-93 -21q-61 0 -99 36t-38 98q0 88 72 130t219 57v14q1 39 -21 55t-62 17q-42 0 -82 -11t-79 -28l-15 96q42 17 88 28t104 11 q94 1 140 -37t47 -125v-331z"/>
<glyph glyph-name="b" horiz-adv-x="537" unicode="b" d="M379 248q1 70 -25 104t-67 35q-31 0 -57 -18t-49 -45v-219q19 -7 35 -10t41 -3q57 0 89 36t33 120zM500 255q0 -67 -18 -116t-48 -81q-32 -32 -76 -48t-99 -16q-57 0 -105 8t-93 24v677l120 19v-293q23 24 57 44t80 20q38 -1 72 -15t58 -44t38 -74t14 -105z"/>
<glyph glyph-name="c" horiz-adv-x="460" unicode="c" d="M425 38q-37 -26 -75 -36t-85 -11q-50 1 -92 17q-43 16 -73 48t-47 78t-17 105q0 63 18 111t50 79q32 32 74 48t91 16q49 1 85 -11t66 -30l-17 -108q-31 23 -61 34t-66 11q-52 1 -86 -37t-33 -110q0 -76 36 -112t91 -36q32 0 62 10t63 36z"/>
<glyph glyph-name="d" horiz-adv-x="541" unicode="d" d="M360 163v208q-23 11 -43 16t-51 5q-48 0 -78 -38t-31 -119q1 -71 27 -105t66 -33q34 0 60 18t50 48zM480 0h-103l-10 67q-25 -31 -61 -54t-87 -23q-38 0 -71 14t-58 44q-25 29 -39 74t-14 106q0 66 17 116q16 50 46 82t68 46q38 16 80 16q34 0 62 -5t50 -13v233l120 19 v-722z"/>
<glyph glyph-name="e" horiz-adv-x="502" unicode="e" d="M349 293q-6 57 -29 87t-67 30q-37 0 -63 -28t-33 -89h192zM466 247v-16t-1 -13h-310q5 -71 39 -103t91 -32q47 0 87 16t79 44l14 -94q-39 -27 -87 -43t-106 -16q-51 0 -94 14q-42 14 -74 46q-32 30 -50 78t-18 113q0 59 16 105t46 80q30 32 70 50t88 17q54 0 94 -19 q40 -18 66 -52t38 -79t12 -96z"/>
<glyph glyph-name="f" horiz-adv-x="326" unicode="f" d="M321 611q-9 2 -22 3t-28 1q-31 -1 -47 -15t-16 -46v-71h92l15 -98h-107v-385h-119v385h-70v98h70v83q0 40 12 68t34 46t53 25q31 8 68 8q16 0 28 -1t21 -3z"/>
<glyph glyph-name="g" horiz-adv-x="519" unicode="g" d="M374 448l118 42l16 -96l-88 -6q7 -14 10 -30t3 -33q1 -39 -15 -70t-42 -52t-62 -33q-35 -12 -74 -11q-21 0 -39 3q-20 -15 -20 -26q-1 -6 3 -10t14 -8t28 -6q18 -3 45 -7l62 -6q37 -5 67 -14t51 -23t32 -34t11 -48q0 -39 -20 -69t-54 -51q-34 -22 -82 -32 q-46 -10 -98 -10q-49 0 -91 8t-73 22q-30 16 -48 38t-18 52q0 34 23 61t68 53q-28 22 -28 52q0 40 61 77q-43 21 -67 57t-24 84q0 39 15 71q16 32 42 54t61 34t76 12q83 0 137 -45zM323 325q1 39 -23 65t-62 26q-40 0 -62 -27t-22 -67q0 -38 22 -63t62 -25t62 26t23 65z M165 24q-51 -36 -51 -73q0 -27 32 -45t102 -17q65 0 100 19t35 46q0 20 -18 32t-63 18l-65 8q-25 4 -39 6t-33 6z"/>
<glyph glyph-name="h" horiz-adv-x="532" unicode="h" d="M473 0h-120v316q-1 32 -15 52t-47 19q-29 -1 -57 -17t-53 -44v-326h-120v703l120 19v-300q30 28 68 50t86 21q68 -1 103 -39t35 -106v-348z"/>
<glyph glyph-name="i" horiz-adv-x="252" unicode="i" d="M186 0h-120v483h120v-483zM198 632q0 -30 -21 -49t-50 -19q-30 0 -51 19t-21 49t21 50t51 20q29 0 50 -20t21 -50z"/>
<glyph glyph-name="j" horiz-adv-x="253" unicode="j" d="M186 -37q0 -77 -41 -111t-108 -34q-13 0 -27 1t-20 3l-15 98q15 -4 38 -4q25 0 39 12t14 45v510h120v-520zM198 632q0 -30 -21 -49t-50 -19q-30 0 -51 19t-21 49t21 50t51 20q29 0 50 -20t21 -50z"/>
<glyph glyph-name="k" horiz-adv-x="493" unicode="k" d="M485 11l-127 -18l-177 246v-239h-120v703l120 19v-439l158 200h135l-178 -216z"/>
<glyph glyph-name="l" horiz-adv-x="252" unicode="l" d="M186 0h-120v703l120 19v-722z"/>
<glyph glyph-name="m" horiz-adv-x="813" unicode="m" d="M754 0h-120v316q0 32 -13 52t-46 19q-29 -1 -55 -17t-52 -43v-327h-120v316q0 32 -14 52t-46 19q-28 -1 -54 -17t-53 -43v-327h-120v483h102l11 -68q34 32 72 55t87 23q52 1 81 -21t43 -57q32 32 72 55t89 23q68 -1 102 -39t34 -106v-348z"/>
<glyph glyph-name="n" horiz-adv-x="532" unicode="n" d="M473 0h-120v316q-1 32 -15 52t-47 19q-29 -1 -57 -17t-53 -44v-326h-120v483h102l11 -68q34 32 73 55t88 23q68 -1 103 -39t35 -106v-348z"/>
<glyph glyph-name="o" horiz-adv-x="527" unicode="o" d="M374 241q0 67 -29 110t-83 43t-82 -42t-27 -111q0 -65 28 -109t81 -44q56 0 84 42t28 111zM491 241q0 -59 -17 -105t-48 -80q-31 -32 -73 -49t-91 -17q-48 0 -90 17t-72 49t-47 80q-17 46 -17 105t17 105t47 80q30 32 72 50t91 17q49 1 91 -17t72 -50t48 -80 q17 -46 17 -105z"/>
<glyph glyph-name="p" horiz-adv-x="541" unicode="p" d="M383 248q0 70 -26 104t-67 35q-32 -1 -58 -19t-51 -49v-207q22 -11 42 -16t51 -5q47 1 78 39t31 118zM504 255q0 -68 -18 -117q-18 -48 -46 -80q-29 -32 -67 -48t-80 -15q-35 -1 -63 5t-49 14v-182l-120 -18v669h102l11 -66q26 29 62 53t86 23q38 -1 71 -15t58 -44 t39 -74t14 -105z"/>
<glyph glyph-name="q" horiz-adv-x="537" unicode="q" d="M356 159v218q-18 7 -34 11t-42 3q-57 -1 -90 -37t-33 -119q0 -71 26 -105t67 -33q30 -1 56 17t50 45zM476 -168l-120 -18v240q-24 -24 -58 -44t-79 -20q-37 0 -71 14t-58 44q-24 29 -39 74q-14 45 -14 106q-1 67 17 116t50 81t76 48t98 16q57 -1 105 -9t93 -23v-625z"/>
<glyph glyph-name="r" horiz-adv-x="367" unicode="r" d="M352 374q-57 -4 -101 -31t-70 -66v-277h-120v483h102l15 -97q24 42 61 73t94 34z"/>
<glyph glyph-name="s" horiz-adv-x="453" unicode="s" d="M419 142q1 -72 -49 -112t-146 -39q-53 0 -103 14t-85 33l16 100q39 -26 85 -42t91 -15q40 -1 60 13t20 37q0 13 -4 23t-16 16q-11 8 -30 14t-48 14q-44 11 -76 24q-32 12 -51 30t-29 42t-10 56q0 62 46 102t132 40q95 0 169 -34l-16 -100q-37 20 -77 32t-76 12 q-34 0 -50 -12t-17 -32q0 -10 4 -18t14 -14q9 -8 27 -14t45 -13q47 -12 80 -25t54 -31q21 -19 31 -43t9 -58z"/>
<glyph glyph-name="t" horiz-adv-x="350" unicode="t" d="M321 0q-14 -4 -32 -6t-44 -2q-36 0 -65 7t-50 24q-20 17 -32 45t-12 69v248h-68v98h68v153l118 18v-171h99l15 -98h-114v-228q0 -29 14 -45t50 -15q23 0 38 4z"/>
<glyph glyph-name="u" horiz-adv-x="532" unicode="u" d="M471 0h-102l-11 68q-34 -32 -74 -55t-87 -23q-69 0 -103 38t-35 108v347h120v-316q1 -32 15 -51t46 -19q29 1 57 17t54 43v326h120v-483z"/>
<glyph glyph-name="v" horiz-adv-x="490" unicode="v" d="M474 483l-171 -485h-117l-169 476l126 16l108 -343l104 336h119z"/>
<glyph glyph-name="w" horiz-adv-x="723" unicode="w" d="M704 483l-145 -483h-107l-91 320l-90 -320h-107l-144 474l120 16l86 -322l88 315h106l87 -315l84 315h113z"/>
<glyph glyph-name="x" horiz-adv-x="484" unicode="x" d="M462 9l-122 -16l-103 168l-96 -161h-119l155 243l-146 231l122 16l92 -154l90 147h118l-147 -230z"/>
<glyph glyph-name="y" horiz-adv-x="496" unicode="y" d="M481 483l-183 -509q-16 -45 -35 -75t-42 -48q-23 -17 -51 -25t-63 -8q-16 0 -26 2t-18 3l-16 99q11 -3 25 -5t31 -2q27 1 47 13t31 38l11 32l-175 476l125 16l112 -344l108 337h119z"/>
<glyph glyph-name="z" horiz-adv-x="460" unicode="z" d="M429 0h-397v92l240 295h-214l-16 96h375v-92l-241 -295h237z"/>
<glyph glyph-name="braceleft" horiz-adv-x="491" unicode="{" d="M450 -104h-135q-75 0 -113 34t-37 97q0 35 7 67t7 68q-1 52 -29 72t-74 20h-31l-12 79h44q46 0 74 20t28 71q0 36 -7 68t-7 67q-1 63 37 97t113 34h131v-80h-97q-35 0 -51 -16t-15 -44q1 -30 7 -62t6 -66q0 -59 -29 -88t-79 -40v-2q52 -12 80 -40t28 -88q0 -32 -6 -65 t-7 -63q0 -28 15 -44t50 -15h89z"/>
<glyph glyph-name="bar" horiz-adv-x="283" unicode="|" d="M193 -170l-103 -16v892l103 16v-892z"/>
<glyph glyph-name="braceright" horiz-adv-x="491" unicode="}" d="M458 254h-44q-46 0 -74 -20t-28 -72q0 -36 7 -68t7 -67q0 -63 -37 -97t-113 -34h-131v81h97q67 0 67 58q0 29 -7 63t-7 66q1 60 29 88t79 40v2q-50 11 -79 40t-29 88q0 33 7 66t7 64q0 58 -67 58h-89l-13 80h136q76 0 113 -34t37 -97q0 -34 -7 -67t-7 -68q0 -51 28 -71 t75 -20h31z"/>
<glyph glyph-name="asciitilde" horiz-adv-x="409" unicode="~" d="M365 346q-9 -67 -31 -97t-58 -30q-19 -1 -35 5t-36 16q-29 14 -41 19t-24 5q-10 0 -18 -10t-14 -38l-64 14q8 68 30 97t59 29q19 0 35 -6t35 -15q29 -15 41 -19t25 -4q11 0 18 10t14 38z"/>
<glyph glyph-name="nonbreakingspace" horiz-adv-x="107" unicode=" "/>
<glyph glyph-name="exclamdown" horiz-adv-x="284" unicode="¡" d="M216 0h-148l36 452l75 17zM207 544h-131v146h131v-146z"/>
<glyph glyph-name="cent" horiz-adv-x="488" unicode="¢" d="M231 200l44 287q-55 -4 -87 -41t-32 -109q0 -55 20 -89t55 -48zM282 91l-16 -101l-70 16l15 93q-77 19 -123 79t-46 158q0 60 18 106t51 78t77 48t95 16h3l16 101l70 -15l-14 -93q47 -10 83 -32l-15 -103q-20 14 -42 24t-46 15l-45 -292q35 -1 68 9t71 36l13 -96 q-39 -24 -77 -36t-86 -11z"/>
<glyph glyph-name="sterling" horiz-adv-x="543" unicode="£" d="M142 386l40 126q30 94 82 136t141 41q29 1 53 -3t43 -9l-16 -109q-34 10 -75 10q-45 0 -71 -23t-44 -79l-28 -90h148l17 -103h-198l-56 -178h309l18 -105h-459v85l63 198h-63v103h96z"/>
<glyph glyph-name="currency" horiz-adv-x="600" unicode="¤" d="M107 384h-81v74h93q13 52 37 94t58 73t80 47q45 16 99 16q53 0 95 -12t76 -33l-18 -110q-35 23 -68 36t-78 13q-58 0 -96 -32t-56 -92h211l12 -74h-236q-1 -10 -1 -22t-1 -24v-20q0 -9 1 -19h231v-74h-219q18 -63 58 -97t103 -33q42 0 78 13t72 37l18 -105 q-38 -24 -83 -38t-99 -14q-115 0 -185 64t-92 173h-84l-11 74h85q-1 9 -1 18v20q1 12 1 24t1 23z"/>
<glyph glyph-name="yen" horiz-adv-x="624" unicode="¥" d="M371 224v-71h160v-72h-160v-81h-125v81h-154l-11 72h165v71h-160v72h141l-211 365l132 22l166 -311l160 304h135l-220 -380h136l11 -72h-165z"/>
<glyph glyph-name="brokenbar" d="M25 -200v1000h450v-1000h-450z" unicode="¦"/>
<glyph glyph-name="section" horiz-adv-x="548" unicode="§" d="M38 314q0 28 10 53t22 44l91 -16q-9 -13 -13 -27t-4 -27q0 -23 18 -36t69 -25l66 -15q36 -9 64 -19t48 -26q21 -16 31 -38t10 -52q0 -32 -13 -58t-35 -43t-55 -27q-32 -10 -69 -10q-50 0 -88 7t-76 22l15 91q35 -17 72 -26t73 -9q32 1 48 13t16 31q0 21 -16 31t-53 18 l-88 21q-77 17 -110 45t-33 78zM509 362q0 -28 -9 -53t-22 -44l-91 16q7 13 12 27t5 27q0 23 -18 36t-70 25l-65 15q-36 9 -64 19t-48 26q-21 16 -31 38t-10 52t13 56t35 44t54 28t70 10q50 0 88 -7t75 -22l-15 -91q-36 17 -72 26t-72 9q-32 -1 -48 -13t-16 -31 q0 -21 16 -31t52 -18l89 -21q76 -17 109 -45t33 -78z"/>
<glyph glyph-name="dieresis" horiz-adv-x="454" unicode="¨" d="M190 550h-115v115h115v-115zM379 550h-115v115h115v-115z"/>
<glyph glyph-name="copyright" horiz-adv-x="799" unicode="©" d="M541 181q-29 -17 -60 -27t-66 -10q-45 0 -81 14t-62 42q-26 26 -38 64q-14 38 -14 84q0 44 14 82t40 65t61 42q36 15 79 15q34 0 64 -8t56 -23l-13 -83q-27 20 -51 28t-52 9q-50 0 -78 -35t-28 -92q0 -58 30 -92t79 -34q26 0 52 8t55 29zM701 345q1 78 -23 138t-64 101 t-96 62q-55 21 -118 21q-65 0 -120 -21q-56 -21 -96 -62t-63 -101t-23 -138t24 -138t64 -101t95 -62t119 -21t119 21t95 62t64 101q23 60 23 138zM745 346q1 -80 -25 -146t-72 -114t-109 -73q-64 -26 -140 -26q-77 0 -141 26t-108 73q-46 46 -71 112t-25 146t26 146t70 114 q46 48 110 73q64 26 140 26t140 -26t110 -73q46 -46 70 -112q25 -66 25 -146z"/>
<glyph glyph-name="ordfeminine" horiz-adv-x="391" unicode="ª" d="M244 447v64q-33 -5 -55 -11q-23 -6 -35 -14t-17 -18t-5 -20q0 -35 37 -35q20 0 39 9t36 25zM337 222h-283v66h272zM328 356h-73l-6 39q-21 -21 -47 -33t-60 -12q-42 0 -67 24t-25 64q0 58 48 86t146 37v8q0 26 -15 36t-41 10q-28 1 -54 -7t-53 -20l-10 66q29 13 61 20 t70 7q62 0 94 -25t32 -82v-218z"/>
<glyph glyph-name="guillemotleft" horiz-adv-x="549" unicode="«" d="M287 483l-127 -241l121 -230l-86 -19l-167 249l163 241h96zM508 483l-127 -241l122 -230l-88 -19l-165 249l162 241h96z"/>
<glyph glyph-name="logicalnot" horiz-adv-x="572" unicode="¬" d="M518 287h-464v102h464v-102z"/>
<glyph glyph-name="registered" horiz-adv-x="563" unicode="®" d="M321 525q0 36 -42 36h-27v-73h26q43 0 43 37zM398 357l-59 -10l-68 101h-19v-98h-57v257h88q45 0 70 -20t25 -58q0 -52 -49 -71zM476 470q0 50 -16 88t-41 64q-26 26 -62 40t-76 14q-41 0 -76 -14t-61 -40t-42 -64q-15 -38 -15 -88q0 -49 15 -87q16 -39 42 -65t61 -40 t76 -13q41 -1 77 13t62 40t41 65q15 38 15 87zM508 470q0 -52 -17 -94t-47 -74q-30 -30 -72 -47t-91 -17q-50 0 -92 16t-72 48q-31 30 -47 73t-16 95t17 94t47 74q30 31 72 48t91 17q50 0 92 -17q42 -18 72 -48q31 -30 47 -73t16 -95z"/>
<glyph glyph-name="degree" horiz-adv-x="436" unicode="°" d="M311 509q0 43 -26 71t-67 29q-41 -1 -67 -29t-26 -71t26 -70t67 -27t67 27t26 70zM390 509q0 -37 -13 -69t-35 -54t-55 -34q-32 -12 -69 -13q-38 1 -70 13t-54 34t-35 54t-13 69t13 69t35 55t54 36t70 13q37 0 69 -13q33 -13 55 -36t35 -55t13 -69z"/>
<glyph glyph-name="plusminus" horiz-adv-x="599" unicode="±" d="M577 144h-101v-144h-118v144h-328v89l301 448l115 -26l-285 -416h197v160l118 25v-185h101v-95z"/>
<glyph glyph-name="twosuperior" d="M25 -200v1000h450v-1000h-450z" unicode="²"/>
<glyph glyph-name="threesuperior" d="M25 -200v1000h450v-1000h-450z" unicode="³"/>
<glyph glyph-name="acute" horiz-adv-x="454" unicode="´" d="M344 671l-140 -124h-79l74 151z"/>
<glyph glyph-name="mu" horiz-adv-x="572" unicode="µ" d="M436 117l-151 154l-151 -153l-68 68l153 151l-154 151l71 71l151 -154l151 153l68 -68l-153 -151l154 -151z"/>
<glyph glyph-name="mu" horiz-adv-x="572" unicode="μ" d="M436 117l-151 154l-151 -153l-68 68l153 151l-154 151l71 71l151 -154l151 153l68 -68l-153 -151l154 -151z"/>
<glyph glyph-name="paragraph" horiz-adv-x="543" unicode="¶" d="M467 0h-85v608h-68v-154l-35 -210q-112 4 -178 58t-66 160q0 102 66 158t181 56h185v-676z"/>
<glyph glyph-name="periodcentered" horiz-adv-x="243" unicode="·" d="M187 214h-131v146h131v-146z"/>
<glyph glyph-name="cedilla" horiz-adv-x="454" unicode="¸" d="M324 -75l-131 -107h-79l65 135z"/>
<glyph glyph-name="onesuperior" d="M25 -200v1000h450v-1000h-450z" unicode="¹"/>
<glyph glyph-name="ordmasculine" horiz-adv-x="393" unicode="º" d="M266 515q0 42 -18 69t-52 27t-52 -27t-17 -69q-1 -41 17 -69t52 -28t52 28t18 69zM345 222h-293v66h282zM352 515q0 -39 -12 -70t-32 -52q-22 -21 -50 -33t-62 -11q-34 -1 -62 11t-48 33t-32 52t-12 70t12 69t32 52t48 34t62 11q34 1 62 -11t50 -34q20 -22 32 -52t12 -69 z"/>
<glyph glyph-name="guillemotright" horiz-adv-x="549" unicode="»" d="M300 241l-163 -241h-97l128 241l-122 231l87 18zM520 241l-162 -241h-96l127 241l-122 231l87 18z"/>
<glyph glyph-name="onequarter" d="M25 -200v1000h450v-1000h-450z" unicode="¼"/>
<glyph glyph-name="onehalf" d="M25 -200v1000h450v-1000h-450z" unicode="½"/>
<glyph glyph-name="threequarters" d="M25 -200v1000h450v-1000h-450z" unicode="¾"/>
<glyph glyph-name="questiondown" horiz-adv-x="512" unicode="¿" d="M241 387l6 69l73 16l12 -159l-31 -12q-35 -15 -61 -27t-42 -26t-24 -30t-7 -38q-1 -38 27 -60t73 -21q54 -1 102 21t91 55l17 -116q-45 -32 -99 -52t-124 -20q-98 1 -156 49t-58 135q0 43 14 75t38 58q26 26 64 45q38 20 85 38zM223 690h132v-146h-132v146z"/>
<glyph glyph-name="Agrave" horiz-adv-x="695" unicode="À" d="M389 744h-79l-141 124l147 27zM439 283l-94 266l-94 -266h188zM674 17l-132 -24l-66 182h-261l-63 -175h-131l259 693h141z"/>
<glyph glyph-name="Aacute" horiz-adv-x="695" unicode="Á" d="M439 283l-94 266l-94 -266h188zM674 17l-132 -24l-66 182h-261l-63 -175h-131l259 693h141zM529 868l-140 -124h-79l74 151z"/>
<glyph glyph-name="Acircumflex" horiz-adv-x="695" unicode="Â" d="M499 745l-69 -14l-82 69l-79 -65h-76l100 144h112zM439 283l-94 266l-94 -266h188zM674 17l-132 -24l-66 182h-261l-63 -175h-131l259 693h141z"/>
<glyph glyph-name="Atilde" horiz-adv-x="695" unicode="Ã" d="M509 872q-9 -66 -31 -96t-58 -30q-20 0 -36 6t-35 15q-29 13 -41 18t-24 5q-10 0 -18 -10t-14 -38l-65 14q9 68 31 98t58 29q20 1 36 -5t35 -16q29 -14 41 -19t24 -5q10 0 18 10t14 38zM439 283l-94 266l-94 -266h188zM674 17l-132 -24l-66 182h-261l-63 -175h-131 l259 693h141z"/>
<glyph glyph-name="Adieresis" horiz-adv-x="695" unicode="Ä" d="M311 747h-115v115h115v-115zM500 747h-115v115h115v-115zM439 283l-94 266l-94 -266h188zM674 17l-132 -24l-66 182h-261l-63 -175h-131l259 693h141z"/>
<glyph glyph-name="Aring" horiz-adv-x="695" unicode="Å" d="M402 847q0 23 -15 41t-39 18t-39 -18t-15 -41q0 -25 15 -42t39 -17t39 17t15 42zM466 847q0 -45 -32 -75t-86 -30t-86 30t-32 75t32 75t86 31q54 -1 86 -31t32 -75zM439 283l-94 266l-94 -266h188zM674 17l-132 -24l-66 182h-261l-63 -175h-131l259 693h141z"/>
<glyph glyph-name="AE" horiz-adv-x="894" unicode="Æ" d="M451 283v315l-164 -315h164zM859 0h-408v175h-217l-94 -175h-138l368 690h479v-112h-271v-162h209l18 -114h-227v-190h281v-112z"/>
<glyph glyph-name="Ccedilla" horiz-adv-x="625" unicode="Ç" d="M436 -81l-131 -107h-79l65 135zM576 47q-42 -27 -93 -43t-110 -16q-75 0 -135 26t-104 72q-42 46 -65 112t-23 146t24 146t66 113q43 47 103 73t133 26q60 0 108 -14t85 -36l-19 -125q-34 25 -76 43t-92 18q-92 0 -144 -65t-53 -178q0 -115 55 -179t147 -63q47 0 91 16 t84 42z"/>
<glyph glyph-name="Egrave" horiz-adv-x="518" unicode="È" d="M335 744h-79l-141 124l147 27zM484 0h-411v690h401v-112h-270v-162h208l18 -114h-226v-190h280v-112z"/>
<glyph glyph-name="Eacute" horiz-adv-x="518" unicode="É" d="M417 868l-140 -124h-79l74 151zM484 0h-411v690h401v-112h-270v-162h208l18 -114h-226v-190h280v-112z"/>
<glyph glyph-name="Ecircumflex" horiz-adv-x="518" unicode="Ê" d="M420 754l-69 -14l-82 69l-79 -65h-76l100 144h112zM484 0h-411v690h401v-112h-270v-162h208l18 -114h-226v-190h280v-112z"/>
<glyph glyph-name="Edieresis" horiz-adv-x="518" unicode="Ë" d="M232 747h-115v115h115v-115zM421 747h-115v115h115v-115zM484 0h-411v690h401v-112h-270v-162h208l18 -114h-226v-190h280v-112z"/>
<glyph glyph-name="Igrave" horiz-adv-x="288" unicode="Ì" d="M188 744h-79l-141 124l147 27zM211 0h-133v690h133v-690z"/>
<glyph glyph-name="Iacute" horiz-adv-x="288" unicode="Í" d="M211 0h-133v690h133v-690zM321 868l-140 -124h-79l74 151z"/>
<glyph glyph-name="Icircumflex" horiz-adv-x="288" unicode="Î" d="M296 745l-69 -14l-82 69l-79 -65h-76l100 144h112zM211 0h-133v690h133v-690z"/>
<glyph glyph-name="Idieresis" horiz-adv-x="288" unicode="Ï" d="M108 747h-115v115h115v-115zM297 747h-115v115h115v-115zM211 0h-133v690h133v-690z"/>
<glyph glyph-name="Eth" horiz-adv-x="732" unicode="Ð" d="M551 345q-1 60 -17 104q-16 43 -46 73t-74 44q-42 14 -94 15h-88v-168h149v-113h-149v-191h87q107 0 169 57t63 179zM685 346q0 -76 -24 -140q-25 -64 -71 -110t-114 -71t-155 -25h-218v300h-70l-19 114h89v276h218q90 0 158 -25t114 -71t69 -108q23 -64 23 -140z"/>
<glyph glyph-name="Ntilde" horiz-adv-x="704" unicode="Ñ" d="M515 857q-9 -67 -31 -97t-58 -29q-20 -1 -36 5t-35 16q-29 13 -41 18t-24 5q-10 1 -18 -9t-14 -39l-65 14q9 67 31 97t58 30q20 0 36 -6t35 -15q29 -14 41 -19t24 -5q10 0 18 10t14 38zM631 0h-110l-325 475v-475h-123v690h125l310 -452v452h123v-690z"/>
<glyph glyph-name="Ograve" horiz-adv-x="740" unicode="Ò" d="M420 753h-79l-141 124l147 27zM560 345q0 57 -13 103t-37 78t-60 50t-80 17q-44 1 -79 -17t-59 -50t-38 -78q-13 -46 -13 -103t13 -103q14 -46 38 -78t59 -50t79 -17q45 -1 80 17q36 18 60 50t37 78t13 103zM694 346q0 -80 -23 -146t-65 -114t-103 -73q-60 -26 -134 -26 q-73 0 -133 26t-102 73q-42 46 -65 112t-23 146t23 146t65 114t103 73q60 26 134 26t134 -26t102 -73q43 -46 65 -112t22 -146z"/>
<glyph glyph-name="Oacute" horiz-adv-x="740" unicode="Ó" d="M560 345q0 57 -13 103t-37 78t-60 50t-80 17q-44 1 -79 -17t-59 -50t-38 -78q-13 -46 -13 -103t13 -103q14 -46 38 -78t59 -50t79 -17q45 -1 80 17q36 18 60 50t37 78t13 103zM694 346q0 -80 -23 -146t-65 -114t-103 -73q-60 -26 -134 -26q-73 0 -133 26t-102 73 q-42 46 -65 112t-23 146t23 146t65 114t103 73q60 26 134 26t134 -26t102 -73q43 -46 65 -112t22 -146zM532 877l-140 -124h-79l74 151z"/>
<glyph glyph-name="Ocircumflex" horiz-adv-x="740" unicode="Ô" d="M521 759l-69 -14l-82 69l-79 -65h-76l100 144h112zM560 345q0 57 -13 103t-37 78t-60 50t-80 17q-44 1 -79 -17t-59 -50t-38 -78q-13 -46 -13 -103t13 -103q14 -46 38 -78t59 -50t79 -17q45 -1 80 17q36 18 60 50t37 78t13 103zM694 346q0 -80 -23 -146t-65 -114 t-103 -73q-60 -26 -134 -26q-73 0 -133 26t-102 73q-42 46 -65 112t-23 146t23 146t65 114t103 73q60 26 134 26t134 -26t102 -73q43 -46 65 -112t22 -146z"/>
<glyph glyph-name="Otilde" horiz-adv-x="740" unicode="Õ" d="M531 884q-9 -66 -31 -96t-58 -30q-20 0 -36 6t-35 15q-29 13 -41 18t-24 5q-10 0 -18 -10t-14 -38l-65 14q9 68 31 98t58 29q20 1 36 -5t35 -16q29 -14 41 -19t24 -5q10 0 18 10t14 38zM560 345q0 57 -13 103t-37 78t-60 50t-80 17q-44 1 -79 -17t-59 -50t-38 -78 q-13 -46 -13 -103t13 -103q14 -46 38 -78t59 -50t79 -17q45 -1 80 17q36 18 60 50t37 78t13 103zM694 346q0 -80 -23 -146t-65 -114t-103 -73q-60 -26 -134 -26q-73 0 -133 26t-102 73q-42 46 -65 112t-23 146t23 146t65 114t103 73q60 26 134 26t134 -26t102 -73 q43 -46 65 -112t22 -146z"/>
<glyph glyph-name="Odieresis" horiz-adv-x="740" unicode="Ö" d="M333 756h-115v115h115v-115zM522 756h-115v115h115v-115zM560 345q0 57 -13 103t-37 78t-60 50t-80 17q-44 1 -79 -17t-59 -50t-38 -78q-13 -46 -13 -103t13 -103q14 -46 38 -78t59 -50t79 -17q45 -1 80 17q36 18 60 50t37 78t13 103zM694 346q0 -80 -23 -146t-65 -114 t-103 -73q-60 -26 -134 -26q-73 0 -133 26t-102 73q-42 46 -65 112t-23 146t23 146t65 114t103 73q60 26 134 26t134 -26t102 -73q43 -46 65 -112t22 -146z"/>
<glyph glyph-name="multiply" d="M25 -200v1000h450v-1000h-450z" unicode="×"/>
<glyph glyph-name="Oslash" horiz-adv-x="740" unicode="Ø" d="M562 345q0 82 -27 139l-283 -347q23 -21 53 -33t65 -11q44 0 80 18t61 51q25 34 38 80t13 103zM489 553q-23 21 -53 33t-66 11q-45 0 -80 -18t-60 -51q-25 -34 -38 -80t-13 -103q0 -83 28 -139zM702 679l-79 -98q35 -45 53 -105t18 -131q0 -80 -23 -146t-65 -113 t-103 -73q-60 -26 -133 -26q-56 -1 -104 15t-87 45l-47 -56l-93 20l79 97q-36 46 -54 106t-18 131q0 80 23 146t65 113t103 73q60 26 133 26q58 1 106 -15t87 -45l46 56z"/>
<glyph glyph-name="Ugrave" horiz-adv-x="688" unicode="Ù" d="M400 725h-79l-141 124l147 27zM623 270q-1 -70 -21 -122t-57 -88t-89 -54t-114 -18q-63 0 -114 18t-87 54q-35 35 -55 87t-20 120v423h132v-416q0 -79 36 -125t109 -46q75 0 111 44t36 124v419h133v-420z"/>
<glyph glyph-name="Uacute" horiz-adv-x="688" unicode="Ú" d="M623 270q-1 -70 -21 -122t-57 -88t-89 -54t-114 -18q-63 0 -114 18t-87 54q-35 35 -55 87t-20 120v423h132v-416q0 -79 36 -125t109 -46q75 0 111 44t36 124v419h133v-420zM507 849l-140 -124h-79l74 151z"/>
<glyph glyph-name="Ucircumflex" horiz-adv-x="688" unicode="Û" d="M495 739l-69 -14l-82 69l-79 -65h-76l100 144h112zM623 270q-1 -70 -21 -122t-57 -88t-89 -54t-114 -18q-63 0 -114 18t-87 54q-35 35 -55 87t-20 120v423h132v-416q0 -79 36 -125t109 -46q75 0 111 44t36 124v419h133v-420z"/>
<glyph glyph-name="Udieresis" horiz-adv-x="688" unicode="Ü" d="M307 732h-115v115h115v-115zM496 732h-115v115h115v-115zM623 270q-1 -70 -21 -122t-57 -88t-89 -54t-114 -18q-63 0 -114 18t-87 54q-35 35 -55 87t-20 120v423h132v-416q0 -79 36 -125t109 -46q75 0 111 44t36 124v419h133v-420z"/>
<glyph glyph-name="Yacute" horiz-adv-x="654" unicode="Ý" d="M497 844l-140 -124h-79l74 151zM640 690l-250 -426v-264h-133v263l-241 412l138 22l175 -312l169 305h142z"/>
<glyph glyph-name="Thorn" horiz-adv-x="559" unicode="Þ" d="M398 356q0 109 -130 109h-63v-224h58q63 -1 99 27t36 88zM528 359q0 -56 -19 -98t-53 -70t-84 -42q-49 -14 -108 -14h-59v-135h-132v690h132v-119h70q117 1 185 -53t68 -159z"/>
<glyph glyph-name="germandbls" horiz-adv-x="613" unicode="ß" d="M584 150q0 -79 -48 -119t-127 -40q-38 0 -76 10t-69 27l16 99q30 -20 62 -31t61 -11q31 0 49 15t18 43q0 17 -6 33t-25 32t-54 32t-93 30l-13 85q32 45 52 89t20 91q-1 39 -19 61t-51 22q-35 0 -54 -24t-19 -66v-528h-120v385h-69v98h69v35q0 95 51 145t142 50 q92 1 140 -45t48 -125q0 -60 -26 -106t-63 -90q104 -29 154 -75t50 -122z"/>
<glyph glyph-name="agrave" horiz-adv-x="503" unicode="à" d="M303 547h-79l-141 124l147 27zM325 133v108q-51 -6 -85 -17q-34 -10 -53 -24t-27 -30t-7 -33q-1 -26 15 -41t44 -15q32 -1 60 13t53 39zM445 0h-103l-10 63q-29 -31 -68 -52t-93 -21q-61 0 -99 36t-38 98q0 88 72 130t219 57v14q1 39 -21 55t-62 17q-42 0 -82 -11 t-79 -28l-15 96q42 17 88 28t104 11q94 1 140 -37t47 -125v-331z"/>
<glyph glyph-name="aacute" horiz-adv-x="503" unicode="á" d="M412 671l-140 -124h-79l74 151zM325 133v108q-51 -6 -85 -17q-34 -10 -53 -24t-27 -30t-7 -33q-1 -26 15 -41t44 -15q32 -1 60 13t53 39zM445 0h-103l-10 63q-29 -31 -68 -52t-93 -21q-61 0 -99 36t-38 98q0 88 72 130t219 57v14q1 39 -21 55t-62 17q-42 0 -82 -11 t-79 -28l-15 96q42 17 88 28t104 11q94 1 140 -37t47 -125v-331z"/>
<glyph glyph-name="acircumflex" horiz-adv-x="503" unicode="â" d="M400 557l-69 -14l-82 69l-79 -65h-76l100 144h112zM325 133v108q-51 -6 -85 -17q-34 -10 -53 -24t-27 -30t-7 -33q-1 -26 15 -41t44 -15q32 -1 60 13t53 39zM445 0h-103l-10 63q-29 -31 -68 -52t-93 -21q-61 0 -99 36t-38 98q0 88 72 130t219 57v14q1 39 -21 55t-62 17 q-42 0 -82 -11t-79 -28l-15 96q42 17 88 28t104 11q94 1 140 -37t47 -125v-331z"/>
<glyph glyph-name="atilde" horiz-adv-x="503" unicode="ã" d="M414 675q-8 -67 -30 -97t-59 -29q-19 -1 -35 5t-36 16q-30 13 -42 18t-23 5q-11 1 -19 -9t-13 -39l-65 14q8 67 30 97t59 30q19 0 35 -6t36 -15q30 -14 42 -19t23 -5t19 10t13 38zM325 133v108q-51 -6 -85 -17q-34 -10 -53 -24t-27 -30t-7 -33q-1 -26 15 -41t44 -15 q32 -1 60 13t53 39zM445 0h-103l-10 63q-29 -31 -68 -52t-93 -21q-61 0 -99 36t-38 98q0 88 72 130t219 57v14q1 39 -21 55t-62 17q-42 0 -82 -11t-79 -28l-15 96q42 17 88 28t104 11q94 1 140 -37t47 -125v-331z"/>
<glyph glyph-name="adieresis" horiz-adv-x="503" unicode="ä" d="M216 550h-115v115h115v-115zM405 550h-115v115h115v-115zM325 133v108q-51 -6 -85 -17q-34 -10 -53 -24t-27 -30t-7 -33q-1 -26 15 -41t44 -15q32 -1 60 13t53 39zM445 0h-103l-10 63q-29 -31 -68 -52t-93 -21q-61 0 -99 36t-38 98q0 88 72 130t219 57v14q1 39 -21 55 t-62 17q-42 0 -82 -11t-79 -28l-15 96q42 17 88 28t104 11q94 1 140 -37t47 -125v-331z"/>
<glyph glyph-name="aring" horiz-adv-x="503" unicode="å" d="M303 650q0 24 -15 42t-39 17q-24 1 -39 -17t-15 -42q0 -25 15 -42t39 -17t39 17t15 42zM367 650q1 -45 -31 -75t-87 -30t-87 30t-31 75q-1 46 31 76t87 30t87 -30t31 -76zM325 133v108q-51 -6 -85 -17q-34 -10 -53 -24t-27 -30t-7 -33q-1 -26 15 -41t44 -15q32 -1 60 13 t53 39zM445 0h-103l-10 63q-29 -31 -68 -52t-93 -21q-61 0 -99 36t-38 98q0 88 72 130t219 57v14q1 39 -21 55t-62 17q-42 0 -82 -11t-79 -28l-15 96q42 17 88 28t104 11q94 1 140 -37t47 -125v-331z"/>
<glyph glyph-name="ae" horiz-adv-x="785" unicode="æ" d="M334 133q-8 23 -12 49t-4 57v1q-50 -8 -82 -18t-50 -24t-26 -28q-7 -16 -7 -32q0 -28 18 -42t48 -15q59 0 115 52zM632 293q-6 57 -29 87t-66 30q-37 0 -63 -28t-34 -89h192zM748 247v-16t-1 -13h-309q6 -71 40 -103t90 -32q46 0 86 16t80 44l14 -94q-38 -27 -86 -43 t-107 -16q-57 0 -104 18t-79 57q-38 -33 -82 -54t-101 -21q-33 0 -61 8t-50 26q-20 16 -32 42t-12 58q0 84 70 128t215 58v15q-1 39 -19 55t-58 17q-42 0 -82 -11t-79 -28l-15 96q42 17 87 28t98 11q61 1 95 -15t54 -51q26 32 62 49t81 17q53 0 91 -19q38 -18 64 -52t38 -79 t12 -96z"/>
<glyph glyph-name="ccedilla" horiz-adv-x="460" unicode="ç" d="M346 -81l-131 -107h-79l65 135zM425 38q-37 -26 -75 -36t-85 -11q-50 1 -92 17q-43 16 -73 48t-47 78t-17 105q0 63 18 111t50 79q32 32 74 48t91 16q49 1 85 -11t66 -30l-17 -108q-31 23 -61 34t-66 11q-52 1 -86 -37t-33 -110q0 -76 36 -112t91 -36q32 0 62 10t63 36z "/>
<glyph glyph-name="egrave" horiz-adv-x="502" unicode="è" d="M299 547h-79l-141 124l147 27zM349 293q-6 57 -29 87t-67 30q-37 0 -63 -28t-33 -89h192zM466 247v-16t-1 -13h-310q5 -71 39 -103t91 -32q47 0 87 16t79 44l14 -94q-39 -27 -87 -43t-106 -16q-51 0 -94 14q-42 14 -74 46q-32 30 -50 78t-18 113q0 59 16 105t46 80 q30 32 70 50t88 17q54 0 94 -19q40 -18 66 -52t38 -79t12 -96z"/>
<glyph glyph-name="eacute" horiz-adv-x="502" unicode="é" d="M420 671l-140 -124h-79l74 151zM349 293q-6 57 -29 87t-67 30q-37 0 -63 -28t-33 -89h192zM466 247v-16t-1 -13h-310q5 -71 39 -103t91 -32q47 0 87 16t79 44l14 -94q-39 -27 -87 -43t-106 -16q-51 0 -94 14q-42 14 -74 46q-32 30 -50 78t-18 113q0 59 16 105t46 80 q30 32 70 50t88 17q54 0 94 -19q40 -18 66 -52t38 -79t12 -96z"/>
<glyph glyph-name="ecircumflex" horiz-adv-x="502" unicode="ê" d="M406 557l-69 -14l-82 69l-79 -65h-76l100 144h112zM349 293q-6 57 -29 87t-67 30q-37 0 -63 -28t-33 -89h192zM466 247v-16t-1 -13h-310q5 -71 39 -103t91 -32q47 0 87 16t79 44l14 -94q-39 -27 -87 -43t-106 -16q-51 0 -94 14q-42 14 -74 46q-32 30 -50 78t-18 113 q0 59 16 105t46 80q30 32 70 50t88 17q54 0 94 -19q40 -18 66 -52t38 -79t12 -96z"/>
<glyph glyph-name="edieresis" horiz-adv-x="502" unicode="ë" d="M218 550h-115v115h115v-115zM407 550h-115v115h115v-115zM349 293q-6 57 -29 87t-67 30q-37 0 -63 -28t-33 -89h192zM466 247v-16t-1 -13h-310q5 -71 39 -103t91 -32q47 0 87 16t79 44l14 -94q-39 -27 -87 -43t-106 -16q-51 0 -94 14q-42 14 -74 46q-32 30 -50 78 t-18 113q0 59 16 105t46 80q30 32 70 50t88 17q54 0 94 -19q40 -18 66 -52t38 -79t12 -96z"/>
<glyph glyph-name="igrave" horiz-adv-x="252" unicode="ì" d="M189 0h-120v483h120v-483zM172 547h-70l-122 124l129 27z"/>
<glyph glyph-name="iacute" horiz-adv-x="252" unicode="í" d="M189 0h-120v483h120v-483zM277 671l-122 -124h-68l62 151z"/>
<glyph glyph-name="icircumflex" horiz-adv-x="252" unicode="î" d="M189 0h-120v483h120v-483zM264 557l-62 -14l-74 69l-71 -65h-69l91 144h100z"/>
<glyph glyph-name="idieresis" horiz-adv-x="252" unicode="ï" d="M189 0h-120v483h120v-483zM96 550h-101v115h101v-115zM259 550h-102v115h102v-115z"/>
<glyph glyph-name="eth" horiz-adv-x="539" unicode="ð" d="M384 309q-26 22 -58 36t-65 14q-49 1 -78 -37t-29 -103q0 -61 30 -97t81 -37q55 -1 87 53t32 151v20zM500 305q0 -87 -22 -149t-63 -105q-33 -33 -71 -47t-86 -14t-88 16t-70 44q-30 30 -47 72t-17 97q0 51 15 95t41 74t63 48q36 18 78 18t78 -14t65 -37q-8 48 -30 83 t-53 62l-30 -43h-84l56 82q-45 24 -99 39l15 96q82 -20 143 -52l34 52l82 -16l-53 -75q69 -53 106 -133t37 -193z"/>
<glyph glyph-name="ntilde" horiz-adv-x="532" unicode="ñ" d="M431 675q-9 -67 -31 -97t-58 -29q-20 -1 -36 5t-35 16q-29 13 -41 18t-24 5q-10 1 -18 -9t-14 -39l-65 14q9 67 31 97t58 30q20 0 36 -6t35 -15q29 -14 41 -19t24 -5q10 0 18 10t14 38zM473 0h-120v316q-1 32 -15 52t-47 19q-29 -1 -57 -17t-53 -44v-326h-120v483h102 l11 -68q34 32 73 55t88 23q68 -1 103 -39t35 -106v-348z"/>
<glyph glyph-name="ograve" horiz-adv-x="527" unicode="ò" d="M305 547h-79l-141 124l147 27zM374 241q0 67 -29 110t-83 43t-82 -42t-27 -111q0 -65 28 -109t81 -44q56 0 84 42t28 111zM491 241q0 -59 -17 -105t-48 -80q-31 -32 -73 -49t-91 -17q-48 0 -90 17t-72 49t-47 80q-17 46 -17 105t17 105t47 80q30 32 72 50t91 17 q49 1 91 -17t72 -50t48 -80q17 -46 17 -105z"/>
<glyph glyph-name="oacute" horiz-adv-x="527" unicode="ó" d="M374 241q0 67 -29 110t-83 43t-82 -42t-27 -111q0 -65 28 -109t81 -44q56 0 84 42t28 111zM491 241q0 -59 -17 -105t-48 -80q-31 -32 -73 -49t-91 -17q-48 0 -90 17t-72 49t-47 80q-17 46 -17 105t17 105t47 80q30 32 72 50t91 17q49 1 91 -17t72 -50t48 -80 q17 -46 17 -105zM439 671l-140 -124h-79l74 151z"/>
<glyph glyph-name="ocircumflex" horiz-adv-x="527" unicode="ô" d="M413 557l-69 -14l-82 69l-79 -65h-76l100 144h112zM374 241q0 67 -29 110t-83 43t-82 -42t-27 -111q0 -65 28 -109t81 -44q56 0 84 42t28 111zM491 241q0 -59 -17 -105t-48 -80q-31 -32 -73 -49t-91 -17q-48 0 -90 17t-72 49t-47 80q-17 46 -17 105t17 105t47 80 q30 32 72 50t91 17q49 1 91 -17t72 -50t48 -80q17 -46 17 -105z"/>
<glyph glyph-name="otilde" horiz-adv-x="527" unicode="õ" d="M424 675q-8 -67 -30 -97t-59 -29q-19 -1 -35 5t-36 16q-30 13 -42 18t-23 5q-11 1 -19 -9t-13 -39l-65 14q8 67 30 97t59 30q19 0 35 -6t36 -15q30 -14 42 -19t23 -5t19 10t13 38zM374 241q0 67 -29 110t-83 43t-82 -42t-27 -111q0 -65 28 -109t81 -44q56 0 84 42t28 111 zM491 241q0 -59 -17 -105t-48 -80q-31 -32 -73 -49t-91 -17q-48 0 -90 17t-72 49t-47 80q-17 46 -17 105t17 105t47 80q30 32 72 50t91 17q49 1 91 -17t72 -50t48 -80q17 -46 17 -105z"/>
<glyph glyph-name="odieresis" horiz-adv-x="527" unicode="ö" d="M225 550h-115v115h115v-115zM414 550h-115v115h115v-115zM374 241q0 67 -29 110t-83 43t-82 -42t-27 -111q0 -65 28 -109t81 -44q56 0 84 42t28 111zM491 241q0 -59 -17 -105t-48 -80q-31 -32 -73 -49t-91 -17q-48 0 -90 17t-72 49t-47 80q-17 46 -17 105t17 105t47 80 q30 32 72 50t91 17q49 1 91 -17t72 -50t48 -80q17 -46 17 -105z"/>
<glyph glyph-name="divide" horiz-adv-x="572" unicode="÷" d="M344 88h-116v119h116v-119zM518 291h-464v94h464v-94zM344 469h-116v119h116v-119z"/>
<glyph glyph-name="oslash" horiz-adv-x="527" unicode="ø" d="M364 319l-167 -211q14 -12 30 -18t36 -6q56 0 85 44t29 113q0 45 -13 78zM329 375q-26 24 -66 24q-57 0 -85 -44t-28 -114q0 -43 12 -77zM499 474l-55 -69q24 -31 36 -72t12 -92q0 -59 -18 -105t-48 -80q-30 -32 -72 -49t-90 -17q-38 0 -70 10t-60 28l-29 -36l-77 17 l56 68q-48 65 -48 164q0 59 17 105t47 80q30 32 72 50t90 17q75 0 131 -38l29 36z"/>
<glyph glyph-name="ugrave" horiz-adv-x="532" unicode="ù" d="M308 547h-79l-141 124l147 27zM471 0h-102l-11 68q-34 -32 -74 -55t-87 -23q-69 0 -103 38t-35 108v347h120v-316q1 -32 15 -51t46 -19q29 1 57 17t54 43v326h120v-483z"/>
<glyph glyph-name="uacute" horiz-adv-x="532" unicode="ú" d="M425 671l-140 -124h-79l74 151zM471 0h-102l-11 68q-34 -32 -74 -55t-87 -23q-69 0 -103 38t-35 108v347h120v-316q1 -32 15 -51t46 -19q29 1 57 17t54 43v326h120v-483z"/>
<glyph glyph-name="ucircumflex" horiz-adv-x="532" unicode="û" d="M417 557l-69 -14l-82 69l-79 -65h-76l100 144h112zM471 0h-102l-11 68q-34 -32 -74 -55t-87 -23q-69 0 -103 38t-35 108v347h120v-316q1 -32 15 -51t46 -19q29 1 57 17t54 43v326h120v-483z"/>
<glyph glyph-name="udieresis" horiz-adv-x="532" unicode="ü" d="M230 550h-115v115h115v-115zM419 550h-115v115h115v-115zM471 0h-102l-11 68q-34 -32 -74 -55t-87 -23q-69 0 -103 38t-35 108v347h120v-316q1 -32 15 -51t46 -19q29 1 57 17t54 43v326h120v-483z"/>
<glyph glyph-name="yacute" horiz-adv-x="496" unicode="ý" d="M427 662l-140 -124h-79l74 151zM481 483l-183 -509q-16 -45 -35 -75t-42 -48q-23 -17 -51 -25t-63 -8q-16 0 -26 2t-18 3l-16 99q11 -3 25 -5t31 -2q27 1 47 13t31 38l11 32l-175 476l125 16l112 -344l108 337h119z"/>
<glyph glyph-name="thorn" horiz-adv-x="541" unicode="þ" d="M383 248q0 70 -26 104t-67 35q-32 -1 -58 -19t-51 -49v-207q22 -11 42 -16t49 -5q49 1 80 39t31 118zM504 255q0 -68 -18 -117q-18 -48 -46 -80q-29 -32 -67 -48t-80 -15q-35 -1 -63 5t-49 14v-182l-120 -18v889l120 19v-298q25 26 59 48t82 21q38 -1 71 -15t58 -44 t39 -74t14 -105z"/>
<glyph glyph-name="OE" horiz-adv-x="890" unicode="Œ" d="M446 109v472h-32q-108 1 -170 -57t-62 -179q0 -59 16 -103t48 -74q30 -30 72 -44t95 -15h33zM855 0h-443q-90 0 -158 25t-114 71t-69 108q-23 64 -23 140t24 140t70 110t114 71t156 25h433v-112h-269v-162h208l17 -114h-225v-190h279v-112z"/>
<glyph glyph-name="oe" horiz-adv-x="841" unicode="œ" d="M374 241q0 67 -29 110t-83 43t-82 -42t-27 -111q0 -65 28 -109t81 -44q56 0 84 42t28 111zM687 293q-6 57 -29 87t-66 30q-38 0 -64 -28t-33 -89h192zM804 247v-16t-2 -13h-309q5 -71 39 -103t91 -32q46 0 86 16t80 44l14 -94q-39 -27 -85 -43t-105 -16q-67 0 -111 24 t-71 66q-27 -42 -69 -66t-103 -24q-49 0 -89 17t-70 49t-47 80q-17 46 -17 105t17 105t47 80q30 32 72 50t89 17q62 1 104 -23t68 -67q26 42 67 66t97 24q53 0 92 -19q39 -18 65 -52t38 -79t12 -96z"/>
<glyph glyph-name="Scaron" horiz-adv-x="533" unicode="Š" d="M426 897l-100 -144h-112l-94 134l69 14l82 -69l79 65h76zM493 197q1 -51 -17 -89t-49 -64t-73 -39t-93 -13q-63 0 -117 13t-100 35l20 121q44 -25 96 -43t103 -18q47 0 75 21t28 63q0 20 -6 34t-18 26q-14 12 -38 26q-24 13 -62 29q-50 21 -86 41t-58 42q-22 24 -34 54 q-10 30 -10 69q0 45 16 81t47 61q30 25 71 38t89 13q59 0 101 -11t81 -31l-20 -120q-38 26 -80 40t-83 14q-50 0 -72 -21t-23 -53q0 -18 5 -30t18 -24t36 -24t59 -27q53 -22 90 -43q37 -22 60 -46t33 -54t11 -71z"/>
<glyph glyph-name="scaron" horiz-adv-x="453" unicode="š" d="M382 691l-100 -144h-112l-94 134l69 14l82 -69l79 65h76zM419 142q1 -72 -49 -112t-146 -39q-53 0 -103 14t-85 33l16 100q39 -26 85 -42t91 -15q40 -1 60 13t20 37q0 13 -4 23t-16 16q-11 8 -30 14t-48 14q-44 11 -76 24q-32 12 -51 30t-29 42t-10 56q0 62 46 102 t132 40q95 0 169 -34l-16 -100q-37 20 -77 32t-76 12q-34 0 -50 -12t-17 -32q0 -10 4 -18t14 -14q9 -8 27 -14t45 -13q47 -12 80 -25t54 -31q21 -19 31 -43t9 -58z"/>
<glyph glyph-name="Ydieresis" horiz-adv-x="654" unicode="Ÿ" d="M291 732h-115v115h115v-115zM480 732h-115v115h115v-115zM640 690l-250 -426v-264h-133v263l-241 412l138 22l175 -312l169 305h142z"/>
<glyph glyph-name="circumflex" horiz-adv-x="454" unicode="ˆ" d="M378 557l-69 -14l-82 69l-79 -65h-76l100 144h112z"/>
<glyph glyph-name="tilde" horiz-adv-x="454" unicode="˜" d="M388 675q-8 -67 -30 -97t-59 -29q-19 -1 -35 5t-36 16q-30 13 -42 18t-23 5q-11 1 -19 -9t-13 -39l-65 14q8 67 30 97t59 30q19 0 35 -6t36 -15q30 -14 42 -19t23 -5t19 10t13 38z"/>
<glyph glyph-name="Delta" d="M25 -200v1000h450v-1000h-450z" unicode="Δ"/>
<glyph glyph-name="pi" horiz-adv-x="799" unicode="π" d="M473 415q0 29 -18 45t-52 15h-35v-121h34q33 0 52 16t19 45zM559 417q0 -65 -42 -99t-113 -33h-36v-135h-88v394h130q69 0 109 -34t40 -93zM701 345q1 78 -23 138t-64 101t-96 62q-55 21 -118 21q-65 0 -120 -21q-56 -21 -96 -62t-63 -101t-23 -138t24 -138t64 -101 t95 -62t119 -21t119 21t95 62t64 101q23 60 23 138zM745 346q1 -80 -25 -146t-72 -114t-109 -73q-64 -26 -140 -26q-77 0 -141 26t-108 73q-46 46 -71 112t-25 146t26 146t70 114q46 48 110 73q64 26 140 26t140 -26t110 -73q46 -46 70 -112q25 -66 25 -146z"/>
<glyph glyph-name="endash" horiz-adv-x="454" unicode="–" d="M406 231h-358v112h358v-112z"/>
<glyph glyph-name="emdash" horiz-adv-x="908" unicode="—" d="M860 232h-812v110h812v-110z"/>
<glyph glyph-name="quoteleft" horiz-adv-x="243" unicode="‘" d="M195 682l-25 -258h-137l91 274z"/>
<glyph glyph-name="quotesinglbase" horiz-adv-x="243" unicode="‚" d="M203 146l-91 -274l-71 16l25 258h137z"/>
<glyph glyph-name="quotedblleft" horiz-adv-x="445" unicode="“" d="M398 682l-26 -258h-135l91 274zM194 682l-25 -258h-136l91 274z"/>
<glyph glyph-name="quotedblright" horiz-adv-x="445" unicode="”" d="M412 690l-91 -274l-70 17l25 257h136zM208 690l-91 -274l-70 17l26 257h135z"/>
<glyph glyph-name="dagger" horiz-adv-x="506" unicode="†" d="M299 14l-31 -128h-31l-30 128v265l28 119h35l29 -119v-265zM213 420l-136 -34h-35v102h35l136 -35v-33zM463 386h-35l-135 34v33l135 35h35v-102zM306 611l-36 -135h-35l-35 135v79h106v-79z"/>
<glyph glyph-name="daggerdbl" horiz-adv-x="524" unicode="‡" d="M315 -182h-106v79l36 136h34l36 -136v-79zM222 55l-135 -32h-36v98h36l135 -33v-33zM472 23h-35l-135 32v33l135 33h35v-98zM311 230l-32 -119h-34l-32 119v49l32 119h34l32 -119v-49zM222 420l-135 -32h-36v98h36l135 -33v-33zM472 388h-35l-135 32v33l135 33h35v-98z M315 611l-36 -135h-34l-36 135v79h106v-79z"/>
<glyph glyph-name="ellipsis" horiz-adv-x="752" unicode="…" d="M192 0h-130v145h130v-145zM441 0h-130v145h130v-145zM691 0h-130v145h130v-145z"/>
<glyph glyph-name="perthousand" horiz-adv-x="799" unicode="‰" d="M391 480h-37v-120h36q70 0 70 60q0 28 -18 44t-51 16zM474 314l106 -146l-92 -18l-101 144h-33v-139h-87v394h128q71 -1 111 -33t40 -92q0 -40 -20 -68t-52 -42zM701 345q1 78 -23 138t-64 101t-96 62q-55 21 -118 21q-65 0 -120 -21q-56 -21 -96 -62t-63 -101t-23 -138 t24 -138t64 -101t95 -62t119 -21t119 21t95 62t64 101q23 60 23 138zM745 346q1 -80 -25 -146t-72 -114t-109 -73q-64 -26 -140 -26q-77 0 -141 26t-108 73q-46 46 -71 112t-25 146t26 146t70 114q46 48 110 73q64 26 140 26t140 -26t110 -73q46 -46 70 -112q25 -66 25 -146 z"/>
<glyph glyph-name="guilsinglleft" horiz-adv-x="328" unicode="‹" d="M287 483l-127 -241l121 -230l-86 -19l-167 249l163 241h96z"/>
<glyph glyph-name="guilsinglright" horiz-adv-x="328" unicode="›" d="M300 241l-163 -241h-97l128 241l-122 231l87 18z"/>
<glyph glyph-name="trademark" horiz-adv-x="805" unicode="™" d="M321 626h-110v-281h-77v281h-105v64h282zM760 345h-78l-17 227l-81 -228h-66l-81 228l-18 -227h-69l26 345h96l85 -242l84 242h92z"/>
<glyph glyph-name="partialdiff" horiz-adv-x="749" unicode="∂" d="M561 347q0 55 -13 101q-14 46 -38 78t-60 50t-79 17q-45 1 -81 -17t-60 -50t-37 -79q-13 -46 -13 -103q0 -56 13 -102t38 -78t60 -50t80 -18q37 0 67 12t53 32l-156 118l140 30l64 -51q22 44 22 110zM713 108l-24 -122l-105 83q-42 -38 -96 -59t-119 -21q-73 -1 -133 25 t-102 72t-65 112t-23 146t23 146t65 114t103 73q60 26 134 26q75 0 135 -26t101 -73q42 -47 64 -112t22 -143q1 -55 -11 -103t-34 -90z"/>
<glyph glyph-name="product" d="M25 -200v1000h450v-1000h-450z" unicode="∏"/>
<glyph glyph-name="summation" horiz-adv-x="1015" unicode="∑" d="M993 690l-236 -693h-128l-123 340l-125 -340h-125l-234 676l136 24l173 -525l120 324l-62 178l136 24l173 -526l161 518h134z"/>
<glyph glyph-name="minus" d="M25 -200v1000h450v-1000h-450z" unicode="−"/>
<glyph glyph-name="radical" horiz-adv-x="904" unicode="√" d="M321 611q-9 2 -22 3t-28 1q-31 -1 -47 -15t-16 -46v-71h92l15 -98h-107v-385h-119v385h-70v98h70v83q0 40 12 68t34 46t53 25q31 8 68 8q16 0 28 -1t21 -3zM647 611q-9 2 -23 3t-28 1q-30 -1 -46 -15t-16 -46v-71h92l16 -98h-108v-385h-119v385h-70v98h70v83q0 80 46 114 t121 33q16 0 28 -1t21 -3zM838 0h-120v703l120 19v-722z"/>
<glyph glyph-name="infinity" horiz-adv-x="503" unicode="∞" d="M325 133v108q-51 -6 -85 -17q-34 -10 -53 -24t-27 -30t-7 -33q-1 -26 15 -41t44 -15q32 -1 60 13t53 39zM445 0h-103l-10 63q-29 -31 -68 -52t-93 -21q-61 0 -99 36t-38 98q0 88 72 130t219 57v14q1 39 -21 55t-62 17q-42 0 -82 -11t-79 -28l-15 96q42 17 88 28t104 11 q94 1 140 -37t47 -125v-331z"/>
<glyph glyph-name="approxequal" horiz-adv-x="904" unicode="≈" d="M838 0h-120v483h120v-483zM321 611q-9 2 -22 3t-28 1q-31 -1 -47 -15t-16 -46v-71h92l15 -98h-107v-385h-119v385h-70v98h70v83q0 40 12 68t34 46t53 25q31 8 68 8q16 0 28 -1t21 -3zM647 611q-9 2 -23 3t-28 1q-30 -1 -46 -15t-16 -46v-71h92l16 -98h-108v-385h-119v385 h-70v98h70v83q0 80 46 114t121 33q16 0 28 -1t21 -3zM848 633q0 -29 -20 -48t-50 -19t-50 19t-20 48t20 49t50 20t50 -20t20 -49z"/>
<glyph glyph-name="notequal" horiz-adv-x="529" unicode="≠" d="M487 201q0 -47 -17 -87t-49 -68t-77 -44t-102 -15q-60 1 -114 15t-95 38l18 110q43 -28 88 -42t95 -14q60 0 94 28t33 79q-1 54 -43 79t-121 25h-45l-14 83l179 182h-258l-17 106h430v-96l-188 -187q44 -5 82 -19t65 -36q27 -23 41 -57t15 -80z"/>
<glyph glyph-name="lessequal" horiz-adv-x="883" unicode="≤" d="M810 0h-125v496l-194 -499h-110l-194 499v-496h-114v690h173l197 -519l198 519h169v-690z"/>
<glyph glyph-name="greaterequal" horiz-adv-x="695" unicode="≥" d="M501 71q-49 -35 -101 -57t-111 -22q-50 0 -91 13q-42 13 -70 41t-44 70t-15 101v473h132v-454q0 -128 116 -128q45 0 88 20t85 54v508h133v-690h-110z"/>
<glyph glyph-name="lozenge" horiz-adv-x="805" unicode="◊" d="M174 340q-29 0 -56 7t-51 19l10 69q25 -15 50 -25t49 -9q20 -1 33 9t13 26q0 18 -12 29t-42 24q-26 11 -44 21t-30 23q-12 11 -16 27q-6 16 -6 37q0 45 32 71t82 27q28 1 50 -5t41 -17l-10 -68q-23 13 -43 21t-40 8q-22 0 -32 -9t-10 -22q0 -16 10 -26t40 -23 q27 -11 46 -22q19 -12 31 -24q11 -12 17 -28t6 -38q0 -50 -33 -76t-85 -26zM760 345h-78l-17 227l-81 -228h-66l-81 228l-18 -227h-69l26 345h96l85 -242l84 242h92z"/>
</font>
</defs>
</svg>
